<svg width="20" height="20" viewBox="0 0 20 20" fill="none" xmlns="http://www.w3.org/2000/svg">
<g filter="url(#filter0_d_3505_32)">
<path d="M20 10C20 4.47715 15.5229 0 10 0C4.47715 0 0 4.47715 0 10C0 14.9912 3.65684 19.1283 8.4375 19.8785V12.8906H5.89844V10H8.4375V7.79688C8.4375 5.29063 9.93047 3.90625 12.2146 3.90625C13.3084 3.90625 14.4531 4.10156 14.4531 4.10156V6.5625H13.1922C11.95 6.5625 11.5625 7.3334 11.5625 8.125V10H14.3359L13.8926 12.8906H11.5625V19.8785C16.3432 19.1283 20 14.9912 20 10Z" fill="black"/>
<path d="M19.5 10C19.5 14.5381 16.3174 18.3337 12.0625 19.2755V13.3906H13.8926H14.3217L14.3868 12.9664L14.8302 10.0758L14.9185 9.5H14.3359H12.0625V8.125C12.0625 7.80181 12.1425 7.54431 12.2898 7.37389C12.4254 7.21705 12.6797 7.0625 13.1922 7.0625H14.4531H14.9531V6.5625V4.10156V3.67965L14.5372 3.60869L14.4531 4.10156L14.5371 3.60867L14.537 3.60865L14.5367 3.6086L14.5358 3.60844L14.5327 3.60791L14.5216 3.60607L14.4807 3.59943C14.4454 3.59379 14.3943 3.58585 14.33 3.57637C14.2013 3.55744 14.0188 3.53231 13.8014 3.50721C13.3687 3.45724 12.7881 3.40625 12.2146 3.40625C10.9715 3.40625 9.88857 3.78484 9.11579 4.55833C8.34251 5.33233 7.9375 6.44397 7.9375 7.79688V9.5H5.89844H5.39844V10V12.8906V13.3906H5.89844H7.9375V19.2755C3.68256 18.3337 0.5 14.5381 0.5 10C0.5 4.75329 4.75329 0.5 10 0.5C15.2467 0.5 19.5 4.75329 19.5 10Z" stroke="black"/>
</g>
</svg>
